<svg width="200" height="300" viewBox="0 0 200 300" fill="none" xmlns="http://www.w3.org/2000/svg">
  <path d="M120 270C120 270 115 200 115 180C115 160 115 140 115 140" stroke="#4B7F52" stroke-width="10" stroke-linecap="round"/>
  <path d="M115 140C115 140 140 120 160 130C180 140 170 160 150 155C130 150 115 140 115 140Z" fill="#4B7F52"/>
  <path d="M115 140C115 140 130 100 155 95C180 90 185 110 165 120C145 130 115 140 115 140Z" fill="#4B7F52"/>
  <path d="M115 140C115 140 100 110 80 105C60 100 50 120 70 130C90 140 115 140 115 140Z" fill="#4B7F52"/>
  <path d="M115 140C115 140 90 120 65 125C40 130 45 150 65 145C85 140 115 140 115 140Z" fill="#4B7F52"/>
  <circle cx="115" cy="180" r="10" fill="#F9D675"/>
</svg> 