<svg width="1000" height="240" viewBox="0 0 1000 240" fill="none" xmlns="http://www.w3.org/2000/svg">
  <!-- Left stall - Drinks -->
  <rect x="100" y="80" width="200" height="120" fill="#3B82F6"/>
  <rect x="100" y="80" width="200" height="20" fill="#1D4ED8"/>
  <path d="M80 80L320 80L300 40L100 40L80 80Z" fill="#60A5FA"/>
  <rect x="120" y="100" width="40" height="60" fill="#93C5FD"/>
  <rect x="170" y="100" width="40" height="60" fill="#93C5FD"/>
  <rect x="220" y="100" width="40" height="60" fill="#93C5FD"/>
  <rect x="120" y="170" width="160" height="10" fill="#1E40AF"/>
  <rect x="140" y="180" width="120" height="40" fill="#BFDBFE"/>
  <circle cx="150" cy="130" r="10" fill="#DBEAFE"/>
  <circle cx="200" cy="130" r="10" fill="#DBEAFE"/>
  <circle cx="250" cy="130" r="10" fill="#DBEAFE"/>
  
  <!-- Middle stall - Fruits -->
  <rect x="400" y="80" width="200" height="120" fill="#22C55E"/>
  <rect x="400" y="80" width="200" height="20" fill="#15803D"/>
  <path d="M380 80L620 80L600 40L400 40L380 80Z" fill="#4ADE80"/>
  <rect x="420" y="110" width="160" height="50" fill="#BBF7D0"/>
  <rect x="420" y="170" width="160" height="10" fill="#166534"/>
  <rect x="440" y="180" width="120" height="40" fill="#86EFAC"/>
  
  <!-- Fruits in boxes -->
  <circle cx="440" cy="130" r="10" fill="#FB923C"/>
  <circle cx="460" cy="130" r="10" fill="#FB923C"/>
  <circle cx="480" cy="130" r="10" fill="#FB923C"/>
  <circle cx="500" cy="130" r="10" fill="#FBBF24"/>
  <circle cx="520" cy="130" r="10" fill="#FBBF24"/>
  <circle cx="540" cy="130" r="10" fill="#FBBF24"/>
  <circle cx="560" cy="130" r="10" fill="#F87171"/>
  <circle cx="540" cy="150" r="10" fill="#F87171"/>
  <circle cx="520" cy="150" r="10" fill="#F87171"/>
  <circle cx="500" cy="150" r="10" fill="#F87171"/>
  <circle cx="480" cy="150" r="10" fill="#34D399"/>
  <circle cx="460" cy="150" r="10" fill="#34D399"/>
  <circle cx="440" cy="150" r="10" fill="#34D399"/>
  
  <!-- Right stall - Ice Cream -->
  <rect x="700" y="80" width="200" height="120" fill="#EC4899"/>
  <rect x="700" y="80" width="200" height="20" fill="#BE185D"/>
  <path d="M680 80L920 80L900 40L700 40L680 80Z" fill="#F472B6"/>
  <rect x="720" y="110" width="160" height="50" fill="#FBCFE8"/>
  <rect x="720" y="170" width="160" height="10" fill="#9D174D"/>
  <rect x="740" y="180" width="120" height="40" fill="#F9A8D4"/>
  
  <!-- Ice cream cones -->
  <path d="M750 130L760 150L740 150L750 130Z" fill="#FEF3C7"/>
  <circle cx="750" cy="125" r="10" fill="#FCA5A5"/>
  
  <path d="M790 130L800 150L780 150L790 130Z" fill="#FEF3C7"/>
  <circle cx="790" cy="125" r="10" fill="#A5B4FC"/>
  
  <path d="M830 130L840 150L820 150L830 130Z" fill="#FEF3C7"/>
  <circle cx="830" cy="125" r="10" fill="#FCA5A5"/>
  
  <path d="M870 130L880 150L860 150L870 130Z" fill="#FEF3C7"/>
  <circle cx="870" cy="125" r="10" fill="#A5B4FC"/>
  
  <!-- People -->
  <circle cx="200" cy="220" r="15" fill="#F97316"/>
  <rect x="190" y="235" width="20" height="30" fill="#F97316"/>
  <rect x="185" y="245" width="10" height="20" fill="#F97316"/>
  <rect x="205" y="245" width="10" height="20" fill="#F97316"/>
  
  <circle cx="500" cy="220" r="15" fill="#06B6D4"/>
  <rect x="490" y="235" width="20" height="30" fill="#06B6D4"/>
  <rect x="485" y="245" width="10" height="20" fill="#06B6D4"/>
  <rect x="505" y="245" width="10" height="20" fill="#06B6D4"/>
  
  <circle cx="800" cy="220" r="15" fill="#8B5CF6"/>
  <rect x="790" y="235" width="20" height="30" fill="#8B5CF6"/>
  <rect x="785" y="245" width="10" height="20" fill="#8B5CF6"/>
  <rect x="805" y="245" width="10" height="20" fill="#8B5CF6"/>
</svg> 